<?xml version="1.0" encoding="UTF-8" standalone="no"?>
<svg width="32" height="32" viewBox="0 0 32 32" xmlns="http://www.w3.org/2000/svg">
  <!-- Background circle -->
  <circle cx="16" cy="16" r="15" fill="#BDB5D5" />
  
  <!-- Brain simplified outline -->
  <path d="M10,9 C8,11 7,13 7,16 C7,19 8,21 10,23 C12,25 14,26 16,26 C18,26 20,25 22,23 C24,21 25,19 25,16 C25,13 24,11 22,9 C20,7 18,6 16,6 C14,6 12,7 10,9 Z" fill="none" stroke="#7D6E96" stroke-width="1"/>
  
  <!-- Neural connections simplified -->
  <circle cx="12" cy="12" r="1" fill="#7D6E96" />
  <circle cx="16" cy="10" r="1" fill="#7D6E96" />
  <circle cx="20" cy="12" r="1" fill="#7D6E96" />
  <circle cx="12" cy="20" r="1" fill="#7D6E96" />
  <circle cx="20" cy="20" r="1" fill="#7D6E96" />
  <circle cx="16" cy="22" r="1" fill="#7D6E96" />
  
  <!-- Data wave simplified -->
  <path d="M7,16 C9,14 11,18 13,16 C15,14 17,18 19,16 C21,14 23,18 25,16" fill="none" stroke="#4A3A69" stroke-width="1" />
  
  <!-- Initials YK stylized small -->
  <text x="16" y="28" text-anchor="middle" font-family="'Arial', sans-serif" font-weight="bold" font-size="6" fill="#4A3A69">YK</text>
</svg> 