<?xml version="1.0" encoding="UTF-8" standalone="no"?>
<svg width="32" height="32" viewBox="0 0 32 32" xmlns="http://www.w3.org/2000/svg">
  <!-- Background circle -->
  <circle cx="16" cy="16" r="15" fill="#BDB5D5" />
  
  <!-- Stylized head silhouette - simplified -->
  <path d="M12,8 C11,10 11,12 11,16 C11,19 12,22 14,24 C15,25 17,26 18,25 C20,24 21,23 21,21 C21,18 20,16 21,14 C22,12 22,11 21,9 C20,8 18,7 16,7 C14,7 13,7 12,8 Z" fill="none" stroke="#7D6E96" stroke-width="1"/>
  
  <!-- EEG waveform patterns through head - simplified -->
  <path d="M10,11 C12,10 13,12 14,11 C15,10 16,12 17,11 C18,10 19,12 20,11" fill="none" stroke="#4A3A69" stroke-width="0.6" />
  <path d="M10,14 C12,13 13,15 14,14 C15,13 16,15 17,14 C18,13 19,15 20,14" fill="none" stroke="#4A3A69" stroke-width="0.6" />
  <path d="M10,17 C12,16 13,18 14,17 C15,16 16,18 17,17 C18,16 19,18 20,17" fill="none" stroke="#4A3A69" stroke-width="0.6" />
  <path d="M10,20 C12,19 13,21 14,20 C15,19 16,21 17,20 C18,19 19,21 20,20" fill="none" stroke="#4A3A69" stroke-width="0.6" />
  
  <!-- Neural network at the bottom - simplified -->
  <g transform="translate(11, 26) scale(0.7)">
    <circle cx="0" cy="0" r="1" fill="#7D6E96" />
    <circle cx="5" cy="-3" r="1" fill="#7D6E96" />
    <circle cx="10" cy="0" r="1" fill="#7D6E96" />
    <circle cx="15" cy="-3" r="1" fill="#7D6E96" />
    <circle cx="20" cy="0" r="1" fill="#7D6E96" />
    
    <path d="M0,0 L5,-3 M0,0 L10,0 M5,-3 L10,0 M5,-3 L15,-3 M10,0 L15,-3 M10,0 L20,0 M15,-3 L20,0" stroke="#4A3A69" stroke-width="0.5" fill="none" />
  </g>
</svg> 