<?xml version="1.0" encoding="UTF-8" standalone="no"?>
<svg width="200" height="200" viewBox="0 0 200 200" xmlns="http://www.w3.org/2000/svg">
  <!-- Background circle -->
  <circle cx="100" cy="100" r="90" fill="#BDB5D5" />
  
  <!-- Stylized brain with circuit pattern -->
  <path d="M70,60 C60,70 55,85 55,100 C55,110 60,120 70,130 C80,140 90,145 100,145 C110,145 120,140 130,130 C140,120 145,110 145,100 C145,85 140,70 130,60 C120,50 110,45 100,45 C90,45 80,50 70,60 Z" fill="none" stroke="#7D6E96" stroke-width="3"/>
  
  <!-- Circuit board patterns inside brain -->
  <path d="M60,100 L140,100" stroke="#4A3A69" stroke-width="1.5" fill="none" />
  <path d="M70,80 L130,80" stroke="#4A3A69" stroke-width="1.5" fill="none" />
  <path d="M70,120 L130,120" stroke="#4A3A69" stroke-width="1.5" fill="none" />
  <path d="M100,60 L100,140" stroke="#4A3A69" stroke-width="1.5" fill="none" />
  <path d="M80,65 L80,135" stroke="#4A3A69" stroke-width="1.5" fill="none" />
  <path d="M120,65 L120,135" stroke="#4A3A69" stroke-width="1.5" fill="none" />
  
  <!-- Circuit nodes -->
  <circle cx="80" cy="80" r="3" fill="#4A3A69" />
  <circle cx="80" cy="100" r="3" fill="#4A3A69" />
  <circle cx="80" cy="120" r="3" fill="#4A3A69" />
  <circle cx="100" cy="80" r="3" fill="#4A3A69" />
  <circle cx="100" cy="100" r="3" fill="#4A3A69" />
  <circle cx="100" cy="120" r="3" fill="#4A3A69" />
  <circle cx="120" cy="80" r="3" fill="#4A3A69" />
  <circle cx="120" cy="100" r="3" fill="#4A3A69" />
  <circle cx="120" cy="120" r="3" fill="#4A3A69" />
  
  <!-- Waveform at bottom representing biomedical signals -->
  <path d="M55,165 C60,155 65,175 70,165 C75,155 80,175 85,165 C90,155 95,175 100,165 C105,155 110,175 115,165 C120,155 125,175 130,165 C135,155 140,175 145,165" fill="none" stroke="#7D6E96" stroke-width="2.5" />
</svg> 