<?xml version="1.0" encoding="UTF-8" standalone="no"?>
<svg width="200" height="200" viewBox="0 0 200 200" xmlns="http://www.w3.org/2000/svg">
  <!-- Background circle -->
  <circle cx="100" cy="100" r="90" fill="#BDB5D5" />
  
  <!-- Data visualization element - scatter plot -->
  <g transform="translate(60, 70) scale(0.8)">
    <!-- Axes -->
    <path d="M0,0 L0,80 L100,80" stroke="#4A3A69" stroke-width="2.5" fill="none" />
    
    <!-- Data points -->
    <circle cx="15" cy="20" r="4" fill="#7D6E96" />
    <circle cx="25" cy="35" r="4" fill="#7D6E96" />
    <circle cx="40" cy="15" r="4" fill="#7D6E96" />
    <circle cx="55" cy="40" r="4" fill="#7D6E96" />
    <circle cx="70" cy="25" r="4" fill="#7D6E96" />
    <circle cx="85" cy="10" r="4" fill="#7D6E96" />
    
    <!-- Trend line -->
    <path d="M15,20 Q50,35 85,10" stroke="#4A3A69" stroke-width="2" fill="none" stroke-dasharray="3,2" />
  </g>
  
  <!-- Healthcare/Medical element -->
  <g transform="translate(95, 95)">
    <!-- ECG heart rhythm line inside a heart shape -->
    <path d="M0,0 Q25,-30 50,0 Q75,-30 100,0 Q100,30 50,60 Q0,30 0,0" fill="none" stroke="#7D6E96" stroke-width="2.5" />
    <path d="M20,30 L30,30 L35,10 L45,45 L55,20 L60,30 L80,30" fill="none" stroke="#4A3A69" stroke-width="2" />
  </g>
  
  <!-- Neural network visualization -->
  <g transform="translate(75, 135)">
    <!-- Neurons layer 1 -->
    <circle cx="0" cy="0" r="4" fill="#4A3A69" />
    <circle cx="0" cy="15" r="4" fill="#4A3A69" />
    <circle cx="0" cy="30" r="4" fill="#4A3A69" />
    
    <!-- Neurons layer 2 -->
    <circle cx="25" cy="7.5" r="4" fill="#4A3A69" />
    <circle cx="25" cy="22.5" r="4" fill="#4A3A69" />
    
    <!-- Neurons layer 3 -->
    <circle cx="50" cy="15" r="4" fill="#4A3A69" />
    
    <!-- Connections -->
    <path d="M0,0 L25,7.5 M0,0 L25,22.5 M0,15 L25,7.5 M0,15 L25,22.5 M0,30 L25,7.5 M0,30 L25,22.5 M25,7.5 L50,15 M25,22.5 L50,15" stroke="#7D6E96" stroke-width="1.5" fill="none" />
  </g>
</svg> 