<?xml version="1.0" encoding="UTF-8" standalone="no"?>
<svg width="200" height="200" viewBox="0 0 200 200" xmlns="http://www.w3.org/2000/svg">
  <!-- Background circle -->
  <circle cx="100" cy="100" r="90" fill="#BDB5D5" />
  
  <!-- YK monogram stylized - centered -->
  <path d="M70,60 L90,85 L90,140" fill="none" stroke="#4A3A69" stroke-width="6" stroke-linecap="round" stroke-linejoin="round"/>
  <path d="M110,60 L110,140 M110,100 L130,140" fill="none" stroke="#4A3A69" stroke-width="6" stroke-linecap="round" stroke-linejoin="round"/>
  
  <!-- Brain/neural network abstract outline surrounding the monogram -->
  <path d="M50,100 C50,70 70,40 100,40 C130,40 150,70 150,100 C150,130 130,160 100,160 C70,160 50,130 50,100 Z" fill="none" stroke="#7D6E96" stroke-width="3" stroke-dasharray="4,3"/>
  
  <!-- Nodes at intersections -->
  <circle cx="70" cy="60" r="4" fill="#7D6E96" />
  <circle cx="90" cy="85" r="4" fill="#7D6E96" />
  <circle cx="90" cy="140" r="4" fill="#7D6E96" />
  <circle cx="110" cy="60" r="4" fill="#7D6E96" />
  <circle cx="110" cy="100" r="4" fill="#7D6E96" />
  <circle cx="110" cy="140" r="4" fill="#7D6E96" />
  <circle cx="130" cy="140" r="4" fill="#7D6E96" />
  
  <!-- Simplified EEG wave around the bottom -->
  <path d="M40,170 C60,160 65,180 80,170 C95,160 100,180 115,170 C130,160 135,180 160,170" fill="none" stroke="#7D6E96" stroke-width="3"/>
</svg> 