<?xml version="1.0" encoding="UTF-8" standalone="no"?>
<svg width="200" height="200" viewBox="0 0 200 200" xmlns="http://www.w3.org/2000/svg">
  <!-- Background circle -->
  <circle cx="100" cy="100" r="90" fill="#BDB5D5" />
  
  <!-- Brain outline representing neurology and neural networks -->
  <path d="M70,60 C60,70 55,85 55,100 C55,110 60,120 70,130 C80,140 90,145 100,145 C110,145 120,140 130,130 C140,120 145,110 145,100 C145,85 140,70 130,60 C120,50 110,45 100,45 C90,45 80,50 70,60 Z" fill="none" stroke="#7D6E96" stroke-width="4"/>
  
  <!-- Neural connections -->
  <circle cx="75" cy="80" r="5" fill="#7D6E96" />
  <circle cx="100" cy="70" r="5" fill="#7D6E96" />
  <circle cx="125" cy="80" r="5" fill="#7D6E96" />
  <circle cx="80" cy="110" r="5" fill="#7D6E96" />
  <circle cx="120" cy="110" r="5" fill="#7D6E96" />
  <circle cx="100" cy="125" r="5" fill="#7D6E96" />
  
  <!-- Neural connections - lines -->
  <line x1="75" y1="80" x2="100" y2="70" stroke="#7D6E96" stroke-width="2" />
  <line x1="100" y1="70" x2="125" y2="80" stroke="#7D6E96" stroke-width="2" />
  <line x1="75" y1="80" x2="80" y2="110" stroke="#7D6E96" stroke-width="2" />
  <line x1="125" y1="80" x2="120" y2="110" stroke="#7D6E96" stroke-width="2" />
  <line x1="80" y1="110" x2="100" y2="125" stroke="#7D6E96" stroke-width="2" />
  <line x1="120" y1="110" x2="100" y2="125" stroke="#7D6E96" stroke-width="2" />
  <line x1="80" y1="110" x2="120" y2="110" stroke="#7D6E96" stroke-width="2" />
  
  <!-- Data wave representing biomedical signals -->
  <path d="M55,100 C60,95 65,105 70,100 C75,95 80,105 85,100 C90,95 95,105 100,100 C105,95 110,105 115,100 C120,95 125,105 130,100 C135,95 140,105 145,100" fill="none" stroke="#4A3A69" stroke-width="3" />
  
  <!-- Initials YK stylized -->
  <text x="100" y="170" text-anchor="middle" font-family="'Arial', sans-serif" font-weight="bold" font-size="36" fill="#4A3A69">YK</text>
</svg> 