<svg xmlns="http://www.w3.org/2000/svg" viewBox="0 0 300 300" role="img" aria-labelledby="title desc">
  <title id="title">NeuroSense Abstract Logo</title>
  <desc id="desc">Abstract representation of brain, biomedical signal waveform, and degeneration in neon purple.</desc>
  <defs>
    <!-- Neon glow filter -->
    <filter id="neon" x="-50%" y="-50%" width="200%" height="200%">
      <feGaussianBlur in="SourceGraphic" stdDeviation="4" result="blur"></feGaussianBlur>
      <feMerge>
        <feMergeNode in="blur"></feMergeNode>
        <feMergeNode in="SourceGraphic"></feMergeNode>
      </feMerge>
    </filter>
    <!-- Purple gradient -->
    <linearGradient id="purpleGrad" x1="0%" y1="0%" x2="0%" y2="100%">
      <stop offset="0%" stop-color="#CE93D8"></stop>
      <stop offset="100%" stop-color="#4A148C"></stop>
    </linearGradient>
    <!-- Fading dot gradient -->
    <radialGradient id="dotGrad" cx="50%" cy="50%" r="50%">
      <stop offset="0%" stop-color="#4A148C" stop-opacity="0.8"></stop>
      <stop offset="100%" stop-color="#4A148C" stop-opacity="0"></stop>
    </radialGradient>
  </defs>

  <!-- Dark background -->
  <rect width="100%" height="100%" fill="#111"></rect>

  <!-- Abstract brain shape: layered arcs -->
  <path d="M50,150 C50,80 250,80 250,150 C250,220 50,220 50,150 Z" fill="none" stroke="url(#purpleGrad)" stroke-width="8" filter="url(#neon)"></path>
  <path d="M70,150 C70,100 230,100 230,150 C230,200 70,200 70,150 Z" fill="none" stroke="url(#purpleGrad)" stroke-width="6" filter="url(#neon)"></path>
  <path d="M90,150 C90,120 210,120 210,150 C210,180 90,180 90,150 Z" fill="none" stroke="url(#purpleGrad)" stroke-width="4" filter="url(#neon)"></path>

  <!-- Biomedical-style signal waveform -->
  <path d="M50,150 
       L70,150 
       Q75,145 80,150 
       L90,150 
       Q95,155 100,150 
       L110,150 
       L112,130 
       L114,170 
       L116,150 
       L130,150 
       Q135,155 140,150 
       L160,150 
       Q165,145 170,150 
       L260,150" fill="none" stroke="#FFF" stroke-width="4" stroke-linecap="round" filter="url(#neon)"></path>

  <!-- Degeneration dots -->
  <circle cx="260" cy="90" r="6" fill="url(#dotGrad)" filter="url(#neon)"></circle>
  <circle cx="270" cy="120" r="5" fill="url(#dotGrad)" filter="url(#neon)"></circle>
  <circle cx="240" cy="160" r="4" fill="url(#dotGrad)" filter="url(#neon)"></circle>
</svg>
